<svg aria-hidden="true" style="position: absolute; width: 0; height: 0; overflow: hidden;" version="1.1" xmlns="http://www.w3.org/2000/svg" xmlns:xlink="http://www.w3.org/1999/xlink">
<defs>
<symbol id="icon-logo" viewBox="0 0 241 32">
<path fill="#0a224a" style="fill: var(--color1, #0a224a)" d="M0 31.965v-31.965h5.991l14.798 10.372h0.224l14.798-10.372h5.99v31.965h-7.153v-23.024l-10.148 6.795v16.228h-7.153v-16.228l-10.193-6.795v23.024h-7.153z"></path>
<path fill="#0a224a" style="fill: var(--color1, #0a224a)" d="M48.515 31.965v-31.965h7.153v31.965h-7.153z"></path>
<path fill="#0a224a" style="fill: var(--color1, #0a224a)" d="M62.365 31.965v-31.965h7.242l22.621 22.979v-22.979h7.153v31.965h-7.242l-22.621-23.024v23.024h-7.153z"></path>
<path fill="#0a224a" style="fill: var(--color1, #0a224a)" d="M106.077 31.965v-31.965h7.153v31.965h-7.153z"></path>
<path fill="#0a224a" style="fill: var(--color1, #0a224a)" d="M119.927 31.965v-31.965h5.991l14.798 10.372h0.223l14.798-10.372h5.991v31.965h-7.153v-23.024l-10.148 6.795v16.228h-7.153v-16.228l-10.193-6.795v23.024h-7.153z"></path>
<path fill="#0a224a" style="fill: var(--color1, #0a224a)" d="M165.759 31.965l14.395-31.965h11.042l14.396 31.965h-7.78l-3.040-6.751h-18.195l-3.040 6.751h-7.779zM179.171 19.402h13.010l-6.214-13.814h-0.581l-6.214 13.814z"></path>
<path fill="#0a224a" style="fill: var(--color1, #0a224a)" d="M209.623 31.965v-31.965h7.153v26.153h23.381v5.812h-30.534z"></path>
</symbol>
</defs>
</svg>
